<svg width="100" height="100" viewBox="0 0 100 100" fill="none" xmlns="http://www.w3.org/2000/svg">
<path d="M100 16.5474C100.006 14.6759 99.6403 12.8219 98.925 11.0928C98.2098 9.36372 97.1589 7.79403 95.8333 6.47473L93.3917 4.02957C90.6799 1.44284 87.0784 0 83.3333 0C79.5883 0 75.9867 1.44284 73.275 4.02957L69.1083 8.20219H16.6667C12.2464 8.20219 8.00716 9.96065 4.88155 13.0907C1.75595 16.2208 0 20.4661 0 24.8927L0 83.3095C0 87.7361 1.75595 91.9814 4.88155 95.1115C8.00716 98.2415 12.2464 100 16.6667 100H75C79.4203 100 83.6595 98.2415 86.7851 95.1115C89.9107 91.9814 91.6667 87.7361 91.6667 83.3095V30.7928L95.8333 26.6202C97.1589 25.3009 98.2098 23.7312 98.925 22.0021C99.6403 20.273 100.006 18.419 100 16.5474ZM83.3333 83.3095C83.3333 85.5228 82.4554 87.6454 80.8926 89.2105C79.3298 90.7755 77.2101 91.6547 75 91.6547H16.6667C14.4565 91.6547 12.3369 90.7755 10.7741 89.2105C9.21131 87.6454 8.33333 85.5228 8.33333 83.3095V24.8927C8.33333 22.6794 9.21131 20.5568 10.7741 18.9917C12.3369 17.4267 14.4565 16.5474 16.6667 16.5474H60.775L44.525 32.8207C42.9236 34.4338 41.7914 36.4533 41.25 38.6624L38.3333 50.2456C37.9861 51.6303 37.9594 53.0762 38.2552 54.4728C38.5511 55.8694 39.1617 57.1799 40.0404 58.3042C40.9191 59.4285 42.0426 60.3369 43.3254 60.9601C44.6081 61.5832 46.016 61.9046 47.4417 61.8997C48.2015 61.9016 48.9587 61.8091 49.6958 61.6244L61.2667 58.7285C63.4661 58.1816 65.4746 57.0432 67.075 55.4363L83.325 39.1631L83.3333 83.3095ZM89.9417 20.7201L84.5583 26.1111L61.1875 49.5112C60.6534 50.0454 59.9856 50.4259 59.2542 50.6128L47.6792 53.5044C47.5065 53.5487 47.3253 53.547 47.1535 53.4994C46.9817 53.4519 46.8254 53.3601 46.7 53.2332C46.5733 53.1067 46.4813 52.9496 46.4332 52.7771C46.385 52.6045 46.3822 52.4224 46.425 52.2485L49.3167 40.6569C49.5002 39.9241 49.8789 39.2549 50.4125 38.7208L73.775 15.3249L79.1667 9.92966C80.2722 8.82382 81.7708 8.20266 83.3333 8.20266C84.8959 8.20266 86.3945 8.82382 87.5 9.92966L89.9417 12.3748C91.0459 13.4819 91.6662 14.9827 91.6662 16.5474C91.6662 18.1122 91.0459 19.613 89.9417 20.7201Z" fill="#FFFAFA"/>
</svg>
