<svg width="100" height="100" viewBox="0 0 100 100" fill="none" xmlns="http://www.w3.org/2000/svg">
<path d="M40.4583 47.0417C39.6737 46.2571 38.6096 45.8163 37.5 45.8163C36.3904 45.8163 35.3263 46.2571 34.5417 47.0417C33.7571 47.8263 33.3163 48.8904 33.3163 50C33.3163 51.1096 33.7571 52.1737 34.5417 52.9583L47.0417 65.4584C47.431 65.8445 47.8927 66.15 48.4004 66.3574C48.908 66.5647 49.4516 66.6699 50 66.6667C50.5704 66.6486 51.131 66.5135 51.6471 66.2698C52.1631 66.0261 52.6236 65.679 53 65.25L82.1667 31.9167C82.8401 31.0805 83.1648 30.0167 83.0731 28.947C82.9814 27.8773 82.4803 26.8843 81.6743 26.175C80.8683 25.4658 79.8197 25.095 78.747 25.14C77.6743 25.185 76.6604 25.6424 75.9167 26.4167L50 56.4167L40.4583 47.0417Z" fill="#FFF9FA"/>
<path d="M87.5 45.8333C86.3949 45.8333 85.3351 46.2723 84.5537 47.0537C83.7723 47.8351 83.3333 48.8949 83.3333 50C83.3333 58.8406 79.8214 67.319 73.5702 73.5702C67.319 79.8215 58.8406 83.3334 50 83.3334C43.417 83.3303 36.9823 81.3782 31.5073 77.7231C26.0323 74.068 21.7622 68.8736 19.2353 62.7949C16.7085 56.7162 16.0381 50.0254 17.3087 43.5662C18.5793 37.107 21.734 31.1687 26.375 26.5C29.4613 23.3724 33.1403 20.8919 37.1969 19.2034C41.2535 17.5149 45.6061 16.6526 50 16.6667C52.6644 16.6834 55.319 16.9907 57.9167 17.5833C58.4603 17.7515 59.0326 17.8065 59.5983 17.745C60.1639 17.6835 60.711 17.5068 61.2058 17.2258C61.7006 16.9447 62.1326 16.5653 62.4751 16.1109C62.8176 15.6566 63.0635 15.1368 63.1974 14.5838C63.3314 14.0308 63.3507 13.4562 63.2541 12.8954C63.1575 12.3347 62.9471 11.7996 62.6358 11.3233C62.3245 10.847 61.9189 10.4395 61.4441 10.1259C60.9693 9.81231 60.4353 9.5993 59.875 9.50001C56.6381 8.73852 53.3252 8.34712 50 8.33334C41.7681 8.37611 33.7333 10.8563 26.9096 15.4611C20.0859 20.0658 14.7791 26.5886 11.6588 34.2064C8.53862 41.8242 7.74483 50.1955 9.37765 58.264C11.0105 66.3325 14.9967 73.7365 20.8333 79.5417C28.5695 87.2814 39.0569 91.6412 50 91.6667C61.0507 91.6667 71.6488 87.2768 79.4628 79.4628C87.2768 71.6488 91.6667 61.0507 91.6667 50C91.6667 48.8949 91.2277 47.8351 90.4463 47.0537C89.6649 46.2723 88.6051 45.8333 87.5 45.8333Z" fill="#FFFBFC"/>
</svg>
