<svg width="40" height="40" viewBox="0 0 40 40" fill="none" xmlns="http://www.w3.org/2000/svg">
<g clip-path="url(#clip0_37812_2)">
<path d="M29.0618 20L38.1235 10.9383C40.6257 8.43608 40.6257 4.37883 38.1235 1.87661C35.6213 -0.625617 31.5641 -0.625617 29.0618 1.87661L20.0001 10.9383L10.9384 1.87667C8.43614 -0.625551 4.37889 -0.625551 1.87667 1.87667C-0.625556 4.37889 -0.625556 8.43615 1.87667 10.9384L10.9384 20L1.87673 29.0617C-0.62549 31.5639 -0.62549 35.6212 1.87673 38.1234C4.37895 40.6256 8.43621 40.6256 10.9384 38.1234L20.0001 29.0617L29.0618 38.1234C31.5639 40.6256 35.6212 40.6256 38.1235 38.1234C40.6257 35.6212 40.6257 31.5639 38.1235 29.0617L29.0618 20Z" fill="white"/>
</g>
<defs>
<clipPath id="clip0_37812_2">
<rect width="40" height="40" fill="white"/>
</clipPath>
</defs>
</svg>
