<svg width="100" height="100" viewBox="0 0 100 100" fill="none" xmlns="http://www.w3.org/2000/svg">
<path d="M50 96.875C40.729 96.875 31.6662 94.1258 23.9576 88.9751C16.2491 83.8244 10.241 76.5036 6.69314 67.9383C3.14528 59.373 2.217 49.948 4.02568 40.8551C5.83436 31.7623 10.2988 23.4099 16.8544 16.8544C23.4099 10.2988 31.7623 5.83436 40.8551 4.02568C49.948 2.217 59.373 3.14528 67.9383 6.69314C76.5036 10.241 83.8244 16.2491 88.9751 23.9576C94.1258 31.6662 96.875 40.729 96.875 50C96.875 62.432 91.9364 74.3549 83.1456 83.1456C74.3549 91.9364 62.432 96.875 50 96.875ZM50 9.37499C41.9651 9.37499 34.1107 11.7576 27.4299 16.2215C20.7492 20.6855 15.5422 27.0302 12.4674 34.4535C9.39257 41.8767 8.58806 50.0451 10.1556 57.9255C11.7231 65.806 15.5923 73.0447 21.2738 78.7262C26.9553 84.4077 34.194 88.2769 42.0744 89.8444C49.9549 91.4119 58.1233 90.6074 65.5465 87.5326C72.9698 84.4578 79.3145 79.2508 83.7784 72.57C88.2424 65.8893 90.625 58.0349 90.625 50C90.625 39.2256 86.3449 28.8924 78.7262 21.2738C71.1075 13.6551 60.7744 9.37499 50 9.37499Z" fill="#FAFCFF"/>
<path d="M65.625 53.125H34.375C33.5462 53.125 32.7513 52.7958 32.1653 52.2097C31.5792 51.6237 31.25 50.8288 31.25 50C31.25 49.1712 31.5792 48.3763 32.1653 47.7903C32.7513 47.2042 33.5462 46.875 34.375 46.875H65.625C66.4538 46.875 67.2487 47.2042 67.8347 47.7903C68.4208 48.3763 68.75 49.1712 68.75 50C68.75 50.8288 68.4208 51.6237 67.8347 52.2097C67.2487 52.7958 66.4538 53.125 65.625 53.125Z" fill="#FAFCFF"/>
<path d="M65.625 37.5H34.375C33.5462 37.5 32.7513 37.1708 32.1653 36.5847C31.5792 35.9987 31.25 35.2038 31.25 34.375C31.25 33.5462 31.5792 32.7513 32.1653 32.1653C32.7513 31.5792 33.5462 31.25 34.375 31.25H65.625C66.4538 31.25 67.2487 31.5792 67.8347 32.1653C68.4208 32.7513 68.75 33.5462 68.75 34.375C68.75 35.2038 68.4208 35.9987 67.8347 36.5847C67.2487 37.1708 66.4538 37.5 65.625 37.5Z" fill="#FAFCFF"/>
<path d="M65.625 68.75H34.375C33.5462 68.75 32.7513 68.4208 32.1653 67.8347C31.5792 67.2487 31.25 66.4538 31.25 65.625C31.25 64.7962 31.5792 64.0013 32.1653 63.4153C32.7513 62.8292 33.5462 62.5 34.375 62.5H65.625C66.4538 62.5 67.2487 62.8292 67.8347 63.4153C68.4208 64.0013 68.75 64.7962 68.75 65.625C68.75 66.4538 68.4208 67.2487 67.8347 67.8347C67.2487 68.4208 66.4538 68.75 65.625 68.75Z" fill="#FAFCFF"/>
</svg>
