<svg width="24" height="18" viewBox="0 0 24 18" fill="none" xmlns="http://www.w3.org/2000/svg">
<path fill-rule="evenodd" clip-rule="evenodd" d="M21.3625 12.6431C21.3625 12.6431 23.3029 14.9858 23.7829 16.0699C23.7922 16.0856 23.7995 16.1029 23.8045 16.1213C24.0001 16.5218 24.0481 16.8357 23.9521 17.0675C23.7901 17.4504 23.2417 17.6425 23.0557 17.6587H19.6261C19.3873 17.6587 18.8905 17.5824 18.2857 17.0719C17.8237 16.6773 17.3641 16.0274 16.9189 15.3922C16.2541 14.4489 15.6793 13.6304 15.0973 13.6304C15.0238 13.6302 14.9508 13.645 14.8813 13.6744C14.4409 13.8445 13.8817 14.6118 13.8817 16.6553C13.8817 17.2949 13.4689 17.6587 13.1797 17.6587H11.6089C11.0737 17.6587 8.28731 17.4298 5.81651 14.245C2.78891 10.3458 0.0697081 2.52387 0.0433081 2.45492C-0.125892 1.94881 0.229308 1.67302 0.613308 1.67302H4.07651C4.54091 1.67302 4.69211 2.01629 4.79771 2.32436C4.92011 2.6779 5.37371 4.09207 6.11771 5.6808C7.32251 8.26562 8.06291 9.31744 8.65451 9.31744C8.76566 9.31784 8.87492 9.28242 8.97131 9.21475C9.74411 8.69544 9.60011 5.32139 9.56411 4.62605C9.56411 4.49109 9.56291 3.11946 9.16691 2.45639C8.88371 1.98109 8.40131 1.79625 8.10971 1.72877C8.18771 1.59087 8.35331 1.37963 8.56571 1.25493C9.09491 0.932197 10.0513 0.885254 11.0005 0.885254H11.5273C12.5569 0.902858 12.8233 0.983541 13.1977 1.09943C13.9513 1.31948 13.9657 1.91654 13.8997 3.94977C13.8805 4.53069 13.8601 5.18497 13.8601 5.95513C13.8601 6.11943 13.8541 6.3028 13.8541 6.48911C13.8313 7.53213 13.8013 8.70718 14.4037 9.18981C14.4818 9.24931 14.5721 9.28082 14.6641 9.28077C14.8729 9.28077 15.4981 9.28077 17.1937 5.72335C17.9377 4.15221 18.5137 2.29942 18.5533 2.16006C18.5869 2.08231 18.6877 1.86373 18.8101 1.77571C18.8972 1.71908 18.9947 1.69079 19.0933 1.69356H23.1673C23.6113 1.69356 23.9125 1.77571 23.9713 1.98109C24.0697 2.31409 23.9521 3.3307 22.0921 6.40549C21.7789 6.91747 21.5041 7.36049 21.2629 7.74778C19.5769 10.4529 19.5769 10.5893 21.3625 12.6431Z" fill="#4FBFA5"/>
</svg>
