<svg width="24" height="17" viewBox="0 0 24 17" fill="none" xmlns="http://www.w3.org/2000/svg">
<path fill-rule="evenodd" clip-rule="evenodd" d="M21.3625 11.7578C21.3625 11.7578 23.3029 14.1006 23.7829 15.1847C23.7922 15.2003 23.7995 15.2176 23.8045 15.236C24.0001 15.6365 24.0481 15.9504 23.9521 16.1822C23.7901 16.5651 23.2417 16.7573 23.0557 16.7734H19.6261C19.3873 16.7734 18.8905 16.6971 18.2857 16.1866C17.8237 15.792 17.3641 15.1421 16.9189 14.5069C16.2541 13.5637 15.6793 12.7451 15.0973 12.7451C15.0238 12.7449 14.9508 12.7598 14.8813 12.7891C14.4409 12.9593 13.8817 13.7265 13.8817 15.77C13.8817 16.4096 13.4689 16.7734 13.1797 16.7734H11.6089C11.0737 16.7734 8.28731 16.5446 5.81651 13.3598C2.78891 9.46054 0.0697081 1.63861 0.0433081 1.56967C-0.125892 1.06356 0.229308 0.787767 0.613308 0.787767H4.07651C4.54091 0.787767 4.69211 1.13104 4.79771 1.4391C4.92011 1.79265 5.37371 3.20681 6.11771 4.79555C7.32251 7.38036 8.06291 8.43219 8.65451 8.43219C8.76566 8.43259 8.87493 8.39717 8.97131 8.3295C9.74411 7.81019 9.60011 4.43614 9.56411 3.74079C9.56411 3.60583 9.56291 2.23421 9.16691 1.57113C8.88371 1.09583 8.40131 0.910993 8.10971 0.843512C8.18771 0.705616 8.35331 0.494371 8.56571 0.369678C9.09491 0.0469431 10.0513 0 11.0005 0H11.5273C12.5569 0.0176037 12.8233 0.0982874 13.1977 0.214179C13.9513 0.434225 13.9657 1.03129 13.8997 3.06452C13.8805 3.64544 13.8601 4.29971 13.8601 5.06987C13.8601 5.23418 13.8541 5.41755 13.8541 5.60385C13.8313 6.64688 13.8013 7.82193 14.4037 8.30456C14.4818 8.36406 14.5721 8.39557 14.6641 8.39551C14.8729 8.39551 15.4981 8.39551 17.1937 4.83809C17.9377 3.26696 18.5137 1.41417 18.5533 1.2748C18.5869 1.19705 18.6877 0.978474 18.8101 0.890455C18.8972 0.833823 18.9947 0.805533 19.0933 0.808305H23.1673C23.6113 0.808305 23.9125 0.890456 23.9713 1.09583C24.0697 1.42884 23.9521 2.44545 22.0921 5.52024C21.7789 6.03221 21.5041 6.47524 21.2629 6.86252C19.5769 9.56763 19.5769 9.70406 21.3625 11.7578Z" fill="white"/>
</svg>
