<?xml version="1.0" ?><svg viewBox="0 0 24 24" xmlns="http://www.w3.org/2000/svg"><g data-name="28. Edit" id="_28._Edit"><path d="M24,4a3.389,3.389,0,0,0-1-2.414L22.414,1a3.5,3.5,0,0,0-4.828,0l-1,1H4A4,4,0,0,0,0,6V20a4,4,0,0,0,4,4H18a4,4,0,0,0,4-4V7.414l1-1A3.389,3.389,0,0,0,24,4ZM20,20a2,2,0,0,1-2,2H4a2,2,0,0,1-2-2V6A2,2,0,0,1,4,4H14.586l-3.9,3.9A3,3,0,0,0,9.9,9.3l-.7,2.776a2.246,2.246,0,0,0,2.186,2.793,2.207,2.207,0,0,0,.541-.066l2.777-.694a2.985,2.985,0,0,0,1.394-.789l3.9-3.9ZM21.586,5,20.294,6.292l0,0L14.685,11.9a1.01,1.01,0,0,1-.464.264l-2.778.693a.245.245,0,0,1-.235-.065.249.249,0,0,1-.066-.236l.694-2.778a1,1,0,0,1,.263-.464l5.607-5.607,0,0L19,2.414a1.415,1.415,0,0,1,2,0L21.586,3a1.415,1.415,0,0,1,0,2Z"/></g></svg>